{
  "title": "Game Of Thrones S05E01 HDTV x264-Xclusive",
  "uid": 11811268,
  "size": 312338446,
  "categoryP": "video",
  "categoryS": "tv_shows",
  "magnet": "?xt=urn:btih:fd8b1062af0d8c2426cb4d180b86815ffa91b479&amp;dn=Game+Of+Thrones+S05E01+HDTV+x264-Xclusive&amp;tr=udp%3A%2F%2Ftracker.openbittorrent.com%3A80&amp;tr=udp%3A%2F%2Fopen.demonii.com%3A1337&amp;tr=udp%3A%2F%2Ftracker.coppersurfer.tk%3A6969&amp;tr=udp%3A%2F%2Fexodus.desync.com%3A6969",
  "seeders": 3476,
  "leechers": 78,
  "uploader": "beta2008x",
  "files": 1,
  "time": 1428804869,
  "description": "Complete name                            : Game.of.Thrones.S05E01.HDTV.x264-Xclusive.mp4\nFormat                                   : MPEG-4\nFormat profile                           : Base Media\nCodec ID                                 : isom\nFile size                                : 298 MiB\nDuration                                 : 52mn 12s\nOverall bit rate                         : 798 Kbps\nWriting application                      : Lavf53.31.100\nEncoded by                               : Xclusive for iPT\n\nVideo\nID                                       : 1\nFormat                                   : AVC\nFormat/Info                              : Advanced Video Codec\nFormat profile                           : &lt;a class=&quot;__cf_email__&quot; href=&quot;/cdn-cgi/l/email-protection&quot; data-cfemail=&quot;cc84a5aba48c80ffe2fd&quot;&gt;[email&amp;#160;protected]&lt;/a&gt;&lt;script cf-hash='f9e31' type=&quot;text/javascript&quot;&gt;\n/* &lt;![CDATA[ */!function(){try{var t=&quot;currentScript&quot;in document?document.currentScript:function(){for(var t=document.getElementsByTagName(&quot;script&quot;),e=t.length;e--;)if(t[e].getAttribute(&quot;cf-hash&quot;))return t[e]}();if(t&amp;&amp;t.previousSibling){var e,r,n,i,c=t.previousSibling,a=c.getAttribute(&quot;data-cfemail&quot;);if(a){for(e=&quot;&quot;,r=parseInt(a.substr(0,2),16),n=2;a.length-n;n+=2)i=parseInt(a.substr(n,2),16)^r,e+=String.fromCharCode(i);e=document.createTextNode(e),c.parentNode.replaceChild(e,c)}}}catch(u){}}();/* ]]&gt; */&lt;/script&gt;\nFormat settings, CABAC                   : Yes\nFormat settings, ReFrames                : 5 frames\nCodec ID                                 : avc1\nCodec ID/Info                            : Advanced Video Coding\nDuration                                 : 52mn 12s\nBit rate                                 : 645 Kbps\nWidth                                    : 720 pixels\nHeight                                   : 392 pixels\nDisplay aspect ratio                     : 1.85:1\nFrame rate mode                          : Variable\nFrame rate                               : 23.976 fps\nMinimum frame rate                       : 23.952 fps\nMaximum frame rate                       : 24.000 fps\nColor space                              : YUV\nChroma subsampling                       : 4:2:0\nBit depth                                : 8 bits\nScan type                                : Progressive\nBits/(Pixel*Frame)                       : 0.095\nStream size                              : 241 MiB (81%)\n\nAudio\nID                                       : 2\nFormat                                   : AAC\nFormat/Info                              : Advanced Audio Codec\nFormat profile                           : LC\nCodec ID                                 : 40\nDuration                                 : 52mn 12s\nDuration_LastFrame                       : -21ms\nBit rate mode                            : Constant\nBit rate                                 : 147 Kbps\nChannel(s)                               : 2 channels\nChannel positions                        : Front: L R\nSampling rate                            : 48.0 KHz\nCompression mode                         : Lossy\nStream size                              : 54.9 MiB (18%)",
  "parsed": {
    "xt": "urn:btih:fd8b1062af0d8c2426cb4d180b86815ffa91b479",
    "dn": "Game Of Thrones S05E01 HDTV x264-Xclusive",
    "tr": [
      "udp://exodus.desync.com:6969",
      "udp://open.demonii.com:1337",
      "udp://tracker.coppersurfer.tk:6969",
      "udp://tracker.openbittorrent.com:80"
    ],
    "infoHash": "fd8b1062af0d8c2426cb4d180b86815ffa91b479",
    "infoHashBuffer": {
      "type": "Buffer",
      "data": [
        253,
        139,
        16,
        98,
        175,
        13,
        140,
        36,
        38,
        203,
        77,
        24,
        11,
        134,
        129,
        95,
        250,
        145,
        180,
        121
      ]
    },
    "name": "Game Of Thrones S05E01 HDTV x264-Xclusive",
    "announce": [
      "udp://exodus.desync.com:6969",
      "udp://open.demonii.com:1337",
      "udp://tracker.coppersurfer.tk:6969",
      "udp://tracker.openbittorrent.com:80"
    ],
    "urlList": []
  },
  "previous": 3554,
  "peers": 50,
  "last_updated": "2016-12-25T18:57:52.666Z"
}